<?xml version="1.0" encoding="UTF-8" standalone="no"?><!DOCTYPE svg PUBLIC "-//W3C//DTD SVG 1.1//EN" "http://www.w3.org/Graphics/SVG/1.1/DTD/svg11.dtd"><!-- Generated by graphviz version 2.40.1 (20161225.0304)
 --><!-- Title: mygraph Pages: 1 --><svg xmlns="http://www.w3.org/2000/svg" xmlns:xlink="http://www.w3.org/1999/xlink" width="2051pt" height="839pt" viewBox="0.00 0.00 2050.72 839.20">
<g id="graph0" class="graph" transform="scale(1 1) rotate(0) translate(4 835.2)">
<title>mygraph</title>
<polygon fill="#ffffff" stroke="transparent" points="-4,4 -4,-835.2 2046.723,-835.2 2046.723,4 -4,4"/>
<!-- //main:hello&#45;world -->
<g id="node1" class="node">
<title>//main:hello-world</title>
<polygon fill="none" stroke="#000000" points="796.0719,-831.2 675.1083,-831.2 675.1083,-795.2 796.0719,-795.2 796.0719,-831.2"/>
<text text-anchor="middle" x="735.5901" y="-809" font-family="Times,serif" font-size="14.00" fill="#000000">//main:hello-world</text>
</g>
<!-- //main:hello&#45;world.cc -->
<g id="node2" class="node">
<title>//main:hello-world.cc</title>
<polygon fill="none" stroke="#000000" points="670.0011,-758.2 533.1791,-758.2 533.1791,-722.2 670.0011,-722.2 670.0011,-758.2"/>
<text text-anchor="middle" x="601.5901" y="-736" font-family="Times,serif" font-size="14.00" fill="#000000">//main:hello-world.cc</text>
</g>
<!-- //main:hello&#45;world&#45;&gt;//main:hello&#45;world.cc -->
<g id="edge1" class="edge">
<title>//main:hello-world-&gt;//main:hello-world.cc</title>
<path fill="none" stroke="#000000" d="M702.4665,-795.1551C684.7499,-785.5035 662.7448,-773.5156 643.8122,-763.2016"/>
<polygon fill="#000000" stroke="#000000" points="645.2529,-760.0008 634.7971,-758.2904 641.9041,-766.1479 645.2529,-760.0008"/>
</g>
<!-- @bazel_tools//tools/cpp:malloc -->
<g id="node3" class="node">
<title>@bazel_tools//tools/cpp:malloc</title>
<polygon fill="none" stroke="#000000" points="982.3469,-502 788.8333,-502 788.8333,-466 982.3469,-466 982.3469,-502"/>
<text text-anchor="middle" x="885.5901" y="-479.8" font-family="Times,serif" font-size="14.00" fill="#000000">@bazel_tools//tools/cpp:malloc</text>
</g>
<!-- //main:hello&#45;world&#45;&gt;@bazel_tools//tools/cpp:malloc -->
<g id="edge2" class="edge">
<title>//main:hello-world-&gt;@bazel_tools//tools/cpp:malloc</title>
<path fill="none" stroke="#000000" d="M735.5901,-794.8997C735.5901,-780.1349 735.5901,-758.8302 735.5901,-740.2 735.5901,-740.2 735.5901,-740.2 735.5901,-559.8 735.5901,-533.1638 754.6644,-515.8856 779.2093,-504.6783"/>
<polygon fill="#000000" stroke="#000000" points="780.5898,-507.8948 788.4745,-500.8179 777.8975,-501.4333 780.5898,-507.8948"/>
</g>
<!-- @bazel_tools//tools/cpp:current_cc_toolchain -->
<g id="node4" class="node">
<title>@bazel_tools//tools/cpp:current_cc_toolchain</title>
<polygon fill="none" stroke="#000000" points="960.417,-426.2 686.7632,-426.2 686.7632,-390.2 960.417,-390.2 960.417,-426.2"/>
<text text-anchor="middle" x="823.5901" y="-404" font-family="Times,serif" font-size="14.00" fill="#000000">@bazel_tools//tools/cpp:current_cc_toolchain</text>
</g>
<!-- //main:hello&#45;world&#45;&gt;@bazel_tools//tools/cpp:current_cc_toolchain -->
<g id="edge3" class="edge">
<title>//main:hello-world-&gt;@bazel_tools//tools/cpp:current_cc_toolchain</title>
<path fill="none" stroke="#000000" d="M719.9147,-795.0293C709.4471,-781.0153 697.5901,-760.6317 697.5901,-740.2 697.5901,-740.2 697.5901,-740.2 697.5901,-484 697.5901,-458.9843 716.0519,-442.0133 738.8418,-430.5937"/>
<polygon fill="#000000" stroke="#000000" points="740.4877,-433.6892 748.1131,-426.3337 737.5651,-427.3285 740.4877,-433.6892"/>
</g>
<!-- @bazel_tools//tools/def_parser:def_parser -->
<g id="node5" class="node">
<title>@bazel_tools//tools/def_parser:def_parser</title>
<polygon fill="none" stroke="#000000" points="1263.1718,-758.2 1010.0084,-758.2 1010.0084,-722.2 1263.1718,-722.2 1263.1718,-758.2"/>
<text text-anchor="middle" x="1136.5901" y="-736" font-family="Times,serif" font-size="14.00" fill="#000000">@bazel_tools//tools/def_parser:def_parser</text>
</g>
<!-- //main:hello&#45;world&#45;&gt;@bazel_tools//tools/def_parser:def_parser -->
<g id="edge4" class="edge">
<title>//main:hello-world-&gt;@bazel_tools//tools/def_parser:def_parser</title>
<path fill="none" stroke="#000000" d="M796.4934,-802.1129C857.7212,-790.9667 953.4284,-773.5436 1027.7368,-760.0162"/>
<polygon fill="#000000" stroke="#000000" points="1028.3998,-763.4531 1037.6112,-758.2186 1027.146,-756.5663 1028.3998,-763.4531"/>
</g>
<!-- @bazel_tools//tools/cpp:toolchain_type -->
<g id="node6" class="node">
<title>@bazel_tools//tools/cpp:toolchain_type</title>
<polygon fill="none" stroke="#000000" points="1925.9519,-502 1687.2283,-502 1687.2283,-466 1925.9519,-466 1925.9519,-502"/>
<text text-anchor="middle" x="1806.5901" y="-479.8" font-family="Times,serif" font-size="14.00" fill="#000000">@bazel_tools//tools/cpp:toolchain_type</text>
</g>
<!-- //main:hello&#45;world&#45;&gt;@bazel_tools//tools/cpp:toolchain_type -->
<g id="edge5" class="edge">
<title>//main:hello-world-&gt;@bazel_tools//tools/cpp:toolchain_type</title>
<path fill="none" stroke="#000000" d="M796.2403,-812.2633C1022.8036,-808.3709 1806.5901,-791.2185 1806.5901,-740.2 1806.5901,-740.2 1806.5901,-740.2 1806.5901,-559.8 1806.5901,-544.07 1806.5901,-526.5039 1806.5901,-512.2456"/>
<polygon fill="#000000" stroke="#000000" points="1810.0902,-512.0722 1806.5901,-502.0722 1803.0902,-512.0722 1810.0902,-512.0722"/>
</g>
<!-- @bazel_tools//tools/cpp:malloc&#45;&gt;@bazel_tools//tools/cpp:current_cc_toolchain -->
<g id="edge18" class="edge">
<title>@bazel_tools//tools/cpp:malloc-&gt;@bazel_tools//tools/cpp:current_cc_toolchain</title>
<path fill="none" stroke="#000000" d="M870.5816,-465.6509C862.8899,-456.2472 853.3894,-444.6321 844.9482,-434.312"/>
<polygon fill="#000000" stroke="#000000" points="847.5008,-431.9046 838.4604,-426.3801 842.0825,-436.3365 847.5008,-431.9046"/>
</g>
<!-- @bazel_tools//tools/cpp:grep&#45;includes -->
<g id="node15" class="node">
<title>@bazel_tools//tools/cpp:grep-includes</title>
<polygon fill="none" stroke="#000000" points="1261.4366,-426.2 1029.7436,-426.2 1029.7436,-390.2 1261.4366,-390.2 1261.4366,-426.2"/>
<text text-anchor="middle" x="1145.5901" y="-404" font-family="Times,serif" font-size="14.00" fill="#000000">@bazel_tools//tools/cpp:grep-includes</text>
</g>
<!-- @bazel_tools//tools/cpp:malloc&#45;&gt;@bazel_tools//tools/cpp:grep&#45;includes -->
<g id="edge17" class="edge">
<title>@bazel_tools//tools/cpp:malloc-&gt;@bazel_tools//tools/cpp:grep-includes</title>
<path fill="none" stroke="#000000" d="M947.5363,-465.9403C985.5563,-454.856 1034.3918,-440.6186 1074.0556,-429.0551"/>
<polygon fill="#000000" stroke="#000000" points="1075.0477,-432.4116 1083.6684,-426.2525 1073.0885,-425.6914 1075.0477,-432.4116"/>
</g>
<!-- @bazel_tools//tools/cpp:toolchain -->
<g id="node17" class="node">
<title>@bazel_tools//tools/cpp:toolchain</title>
<polygon fill="none" stroke="#000000" points="927.3468,-350.4 719.8334,-350.4 719.8334,-314.4 927.3468,-314.4 927.3468,-350.4"/>
<text text-anchor="middle" x="823.5901" y="-328.2" font-family="Times,serif" font-size="14.00" fill="#000000">@bazel_tools//tools/cpp:toolchain</text>
</g>
<!-- @bazel_tools//tools/cpp:current_cc_toolchain&#45;&gt;@bazel_tools//tools/cpp:toolchain -->
<g id="edge22" class="edge">
<title>@bazel_tools//tools/cpp:current_cc_toolchain-&gt;@bazel_tools//tools/cpp:toolchain</title>
<path fill="none" stroke="#000000" d="M823.5901,-389.8509C823.5901,-381.0989 823.5901,-370.4314 823.5901,-360.6752"/>
<polygon fill="#000000" stroke="#000000" points="827.0902,-360.5801 823.5901,-350.5801 820.0902,-360.5801 827.0902,-360.5801"/>
</g>
<!-- @bazel_tools//tools/def_parser:def_parser_windows -->
<g id="node7" class="node">
<title>@bazel_tools//tools/def_parser:def_parser_windows</title>
<polygon fill="none" stroke="#000000" points="1128.2199,-669.4 816.9603,-669.4 816.9603,-633.4 1128.2199,-633.4 1128.2199,-669.4"/>
<text text-anchor="middle" x="972.5901" y="-647.2" font-family="Times,serif" font-size="14.00" fill="#000000">@bazel_tools//tools/def_parser:def_parser_windows</text>
</g>
<!-- @bazel_tools//tools/def_parser:def_parser&#45;&gt;@bazel_tools//tools/def_parser:def_parser_windows -->
<g id="edge6" class="edge">
<title>@bazel_tools//tools/def_parser:def_parser-&gt;@bazel_tools//tools/def_parser:def_parser_windows</title>
<path fill="none" stroke="#000000" d="M1024.303,-722.1065C1005.9952,-717.2064 990.7487,-711.2585 983.8405,-704.2 977.4795,-697.7006 974.3242,-688.5427 972.8584,-679.6754"/>
<polygon fill="#000000" stroke="#000000" points="976.3247,-679.1669 971.8229,-669.5761 969.3612,-679.8809 976.3247,-679.1669"/>
<text text-anchor="middle" x="1108.4649" y="-691.6" font-family="Times,serif" font-size="14.00" fill="#000000">@bazel_tools//src/conditions:host_windows</text>
</g>
<!-- @bazel_tools//src/conditions:host_windows -->
<g id="node8" class="node">
<title>@bazel_tools//src/conditions:host_windows</title>
<polygon fill="none" stroke="#000000" points="1409.3398,-669.4 1145.8404,-669.4 1145.8404,-633.4 1409.3398,-633.4 1409.3398,-669.4"/>
<text text-anchor="middle" x="1277.5901" y="-647.2" font-family="Times,serif" font-size="14.00" fill="#000000">@bazel_tools//src/conditions:host_windows</text>
</g>
<!-- @bazel_tools//tools/def_parser:def_parser&#45;&gt;@bazel_tools//src/conditions:host_windows -->
<g id="edge7" class="edge">
<title>@bazel_tools//tools/def_parser:def_parser-&gt;@bazel_tools//src/conditions:host_windows</title>
<path fill="none" stroke="#000000" d="M1202.2738,-722.1174C1213.9516,-717.322 1225.5703,-711.4109 1235.5901,-704.2 1245.4166,-697.1282 1254.1547,-687.1599 1261.0815,-677.7866"/>
<polygon fill="#000000" stroke="#000000" points="1264.0513,-679.6472 1266.9129,-669.4461 1258.3144,-675.6361 1264.0513,-679.6472"/>
</g>
<!-- @bazel_tools//tools/def_parser:no_op.bat -->
<g id="node9" class="node">
<title>@bazel_tools//tools/def_parser:no_op.bat</title>
<polygon fill="none" stroke="#000000" points="1677.7065,-669.4 1427.4737,-669.4 1427.4737,-633.4 1677.7065,-633.4 1677.7065,-669.4"/>
<text text-anchor="middle" x="1552.5901" y="-647.2" font-family="Times,serif" font-size="14.00" fill="#000000">@bazel_tools//tools/def_parser:no_op.bat</text>
</g>
<!-- @bazel_tools//tools/def_parser:def_parser&#45;&gt;@bazel_tools//tools/def_parser:no_op.bat -->
<g id="edge8" class="edge">
<title>@bazel_tools//tools/def_parser:def_parser-&gt;@bazel_tools//tools/def_parser:no_op.bat</title>
<path fill="none" stroke="#000000" d="M1221.0245,-722.1765C1289.7512,-707.506 1386.7111,-686.8088 1458.033,-671.5843"/>
<polygon fill="#000000" stroke="#000000" points="1458.8721,-674.9841 1467.921,-669.4736 1457.4107,-668.1384 1458.8721,-674.9841"/>
<text text-anchor="middle" x="1436.027" y="-691.6" font-family="Times,serif" font-size="14.00" fill="#000000">//conditions:default</text>
</g>
<!-- @bazel_tools//tools/def_parser:def_parser.exe\n@bazel_tools//src/conditions:remote -->
<g id="node11" class="node">
<title>@bazel_tools//tools/def_parser:def_parser.exe\n@bazel_tools//src/conditions:remote</title>
<polygon fill="none" stroke="#000000" points="1039.6011,-580.4019 763.5791,-580.4019 763.5791,-539.1981 1039.6011,-539.1981 1039.6011,-580.4019"/>
<text text-anchor="middle" x="901.5901" y="-564" font-family="Times,serif" font-size="14.00" fill="#000000">@bazel_tools//tools/def_parser:def_parser.exe</text>
<text text-anchor="middle" x="901.5901" y="-547.2" font-family="Times,serif" font-size="14.00" fill="#000000">@bazel_tools//src/conditions:remote</text>
</g>
<!-- @bazel_tools//tools/def_parser:def_parser_windows&#45;&gt;@bazel_tools//tools/def_parser:def_parser.exe\n@bazel_tools//src/conditions:remote -->
<g id="edge10" class="edge">
<title>@bazel_tools//tools/def_parser:def_parser_windows-&gt;@bazel_tools//tools/def_parser:def_parser.exe\n@bazel_tools//src/conditions:remote</title>
<path fill="none" stroke="#000000" d="M952.7764,-633.0781C947.312,-627.6193 941.5595,-621.4689 936.7163,-615.4 930.2676,-607.3193 923.9863,-597.9992 918.5607,-589.3273"/>
<polygon fill="#000000" stroke="#000000" points="921.4377,-587.3224 913.2454,-580.604 915.46,-590.9648 921.4377,-587.3224"/>
<text text-anchor="middle" x="992.027" y="-602.8" font-family="Times,serif" font-size="14.00" fill="#000000">//conditions:default</text>
</g>
<!-- @bazel_tools//third_party/def_parser:def_parser -->
<g id="node12" class="node">
<title>@bazel_tools//third_party/def_parser:def_parser</title>
<polygon fill="none" stroke="#000000" points="1346.6536,-577.8 1058.5266,-577.8 1058.5266,-541.8 1346.6536,-541.8 1346.6536,-577.8"/>
<text text-anchor="middle" x="1202.5901" y="-555.6" font-family="Times,serif" font-size="14.00" fill="#000000">@bazel_tools//third_party/def_parser:def_parser</text>
</g>
<!-- @bazel_tools//tools/def_parser:def_parser_windows&#45;&gt;@bazel_tools//third_party/def_parser:def_parser -->
<g id="edge11" class="edge">
<title>@bazel_tools//tools/def_parser:def_parser_windows-&gt;@bazel_tools//third_party/def_parser:def_parser</title>
<path fill="none" stroke="#000000" d="M1016.18,-633.3398C1041.2003,-623.0374 1073.2366,-609.9541 1101.8531,-598.6 1115.9364,-593.0122 1131.171,-587.0842 1145.4252,-581.5881"/>
<polygon fill="#000000" stroke="#000000" points="1147.0345,-584.7191 1155.1108,-577.8616 1144.5209,-578.186 1147.0345,-584.7191"/>
<text text-anchor="middle" x="1205.4586" y="-602.8" font-family="Times,serif" font-size="14.00" fill="#000000">@bazel_tools//src/conditions:remote</text>
</g>
<!-- @bazel_tools//src/conditions:host_windows_x64_constraint\n@bazel_tools//src/conditions:host_windows_arm64_constraint -->
<g id="node10" class="node">
<title>@bazel_tools//src/conditions:host_windows_x64_constraint\n@bazel_tools//src/conditions:host_windows_arm64_constraint</title>
<polygon fill="none" stroke="#000000" points="1733.8118,-580.4019 1365.3684,-580.4019 1365.3684,-539.1981 1733.8118,-539.1981 1733.8118,-580.4019"/>
<text text-anchor="middle" x="1549.5901" y="-564" font-family="Times,serif" font-size="14.00" fill="#000000">@bazel_tools//src/conditions:host_windows_x64_constraint</text>
<text text-anchor="middle" x="1549.5901" y="-547.2" font-family="Times,serif" font-size="14.00" fill="#000000">@bazel_tools//src/conditions:host_windows_arm64_constraint</text>
</g>
<!-- @bazel_tools//src/conditions:host_windows&#45;&gt;@bazel_tools//src/conditions:host_windows_x64_constraint\n@bazel_tools//src/conditions:host_windows_arm64_constraint -->
<g id="edge9" class="edge">
<title>@bazel_tools//src/conditions:host_windows-&gt;@bazel_tools//src/conditions:host_windows_x64_constraint\n@bazel_tools//src/conditions:host_windows_arm64_constraint</title>
<path fill="none" stroke="#000000" d="M1290.9851,-633.3597C1300.7458,-621.5685 1315.0162,-606.8716 1330.9947,-598.6 1342.3891,-592.7014 1362.6416,-587.2466 1386.374,-582.4038"/>
<polygon fill="#000000" stroke="#000000" points="1387.2315,-585.8023 1396.3676,-580.4374 1385.88,-578.934 1387.2315,-585.8023"/>
<text text-anchor="middle" x="1561.3878" y="-602.8" font-family="Times,serif" font-size="14.00" fill="#000000">//conditions:default@bazel_tools//src/conditions:host_windows_arm64_constraint</text>
</g>
<!-- @bazel_tools//third_party/def_parser:def_parser&#45;&gt;@bazel_tools//tools/cpp:malloc -->
<g id="edge14" class="edge">
<title>@bazel_tools//third_party/def_parser:def_parser-&gt;@bazel_tools//tools/cpp:malloc</title>
<path fill="none" stroke="#000000" d="M1127.0634,-541.7403C1080.1202,-530.5154 1019.6538,-516.0569 970.9723,-504.4163"/>
<polygon fill="#000000" stroke="#000000" points="971.6267,-500.9742 961.0869,-502.0525 969.9987,-507.7823 971.6267,-500.9742"/>
</g>
<!-- @bazel_tools//third_party/def_parser:def_parser&#45;&gt;@bazel_tools//tools/cpp:current_cc_toolchain -->
<g id="edge15" class="edge">
<title>@bazel_tools//third_party/def_parser:def_parser-&gt;@bazel_tools//tools/cpp:current_cc_toolchain</title>
<path fill="none" stroke="#000000" d="M1069.7487,-541.7771C945.828,-524.9455 779.8954,-502.3499 779.5901,-502 762.2584,-482.139 779.1884,-454.2788 796.8336,-434.086"/>
<polygon fill="#000000" stroke="#000000" points="799.6286,-436.2173 803.8197,-426.4866 794.4752,-431.4798 799.6286,-436.2173"/>
</g>
<!-- @bazel_tools//third_party/def_parser:def_parser&#45;&gt;@bazel_tools//tools/cpp:toolchain_type -->
<g id="edge16" class="edge">
<title>@bazel_tools//third_party/def_parser:def_parser-&gt;@bazel_tools//tools/cpp:toolchain_type</title>
<path fill="none" stroke="#000000" d="M1334.877,-541.7631C1342.2205,-540.8148 1349.496,-539.8878 1356.5901,-539 1495.889,-521.5664 1533.4573,-520.201 1677.0555,-502.0501"/>
<polygon fill="#000000" stroke="#000000" points="1677.6447,-505.5035 1687.1243,-500.772 1676.7631,-498.5592 1677.6447,-505.5035"/>
</g>
<!-- @bazel_tools//third_party/def_parser:def_parser_main.cc -->
<g id="node13" class="node">
<title>@bazel_tools//third_party/def_parser:def_parser_main.cc</title>
<polygon fill="none" stroke="#000000" points="1340.5787,-502 1000.6015,-502 1000.6015,-466 1340.5787,-466 1340.5787,-502"/>
<text text-anchor="middle" x="1170.5901" y="-479.8" font-family="Times,serif" font-size="14.00" fill="#000000">@bazel_tools//third_party/def_parser:def_parser_main.cc</text>
</g>
<!-- @bazel_tools//third_party/def_parser:def_parser&#45;&gt;@bazel_tools//third_party/def_parser:def_parser_main.cc -->
<g id="edge12" class="edge">
<title>@bazel_tools//third_party/def_parser:def_parser-&gt;@bazel_tools//third_party/def_parser:def_parser_main.cc</title>
<path fill="none" stroke="#000000" d="M1194.8438,-541.4509C1191.0704,-532.5127 1186.4536,-521.5766 1182.2645,-511.6537"/>
<polygon fill="#000000" stroke="#000000" points="1185.3788,-510.0315 1178.2651,-502.1801 1178.9299,-512.754 1185.3788,-510.0315"/>
</g>
<!-- @bazel_tools//third_party/def_parser:def_parser_lib -->
<g id="node14" class="node">
<title>@bazel_tools//third_party/def_parser:def_parser_lib</title>
<polygon fill="none" stroke="#000000" points="1668.9347,-502 1358.2455,-502 1358.2455,-466 1668.9347,-466 1668.9347,-502"/>
<text text-anchor="middle" x="1513.5901" y="-479.8" font-family="Times,serif" font-size="14.00" fill="#000000">@bazel_tools//third_party/def_parser:def_parser_lib</text>
</g>
<!-- @bazel_tools//third_party/def_parser:def_parser&#45;&gt;@bazel_tools//third_party/def_parser:def_parser_lib -->
<g id="edge13" class="edge">
<title>@bazel_tools//third_party/def_parser:def_parser-&gt;@bazel_tools//third_party/def_parser:def_parser_lib</title>
<path fill="none" stroke="#000000" d="M1276.6872,-541.7403C1322.6458,-530.5388 1381.8163,-516.1172 1429.5247,-504.4893"/>
<polygon fill="#000000" stroke="#000000" points="1430.6355,-507.8211 1439.5223,-502.0525 1428.9779,-501.0201 1430.6355,-507.8211"/>
</g>
<!-- @bazel_tools//third_party/def_parser:def_parser_lib&#45;&gt;@bazel_tools//tools/cpp:current_cc_toolchain -->
<g id="edge21" class="edge">
<title>@bazel_tools//third_party/def_parser:def_parser_lib-&gt;@bazel_tools//tools/cpp:current_cc_toolchain</title>
<path fill="none" stroke="#000000" d="M1358.3106,-466.9418C1242.2923,-454.1966 1084.7311,-436.8877 970.722,-424.3632"/>
<polygon fill="#000000" stroke="#000000" points="970.843,-420.8555 960.5206,-423.2425 970.0786,-427.8136 970.843,-420.8555"/>
</g>
<!-- @bazel_tools//third_party/def_parser:def_parser_lib&#45;&gt;@bazel_tools//tools/cpp:grep&#45;includes -->
<g id="edge20" class="edge">
<title>@bazel_tools//third_party/def_parser:def_parser_lib-&gt;@bazel_tools//tools/cpp:grep-includes</title>
<path fill="none" stroke="#000000" d="M1425.9125,-465.9403C1370.9617,-454.6217 1300.0489,-440.0152 1243.296,-428.3253"/>
<polygon fill="#000000" stroke="#000000" points="1243.7336,-424.842 1233.2331,-426.2525 1242.3213,-431.6981 1243.7336,-424.842"/>
</g>
<!-- @bazel_tools//third_party/def_parser:def_parser.cc\n@bazel_tools//third_party/def_parser:def_parser.h -->
<g id="node16" class="node">
<title>@bazel_tools//third_party/def_parser:def_parser.cc\n@bazel_tools//third_party/def_parser:def_parser.h</title>
<polygon fill="none" stroke="#000000" points="1666.0829,-428.8019 1361.0973,-428.8019 1361.0973,-387.5981 1666.0829,-387.5981 1666.0829,-428.8019"/>
<text text-anchor="middle" x="1513.5901" y="-412.4" font-family="Times,serif" font-size="14.00" fill="#000000">@bazel_tools//third_party/def_parser:def_parser.cc</text>
<text text-anchor="middle" x="1513.5901" y="-395.6" font-family="Times,serif" font-size="14.00" fill="#000000">@bazel_tools//third_party/def_parser:def_parser.h</text>
</g>
<!-- @bazel_tools//third_party/def_parser:def_parser_lib&#45;&gt;@bazel_tools//third_party/def_parser:def_parser.cc\n@bazel_tools//third_party/def_parser:def_parser.h -->
<g id="edge19" class="edge">
<title>@bazel_tools//third_party/def_parser:def_parser_lib-&gt;@bazel_tools//third_party/def_parser:def_parser.cc\n@bazel_tools//third_party/def_parser:def_parser.h</title>
<path fill="none" stroke="#000000" d="M1513.5901,-465.6509C1513.5901,-457.715 1513.5901,-448.2041 1513.5901,-439.2258"/>
<polygon fill="#000000" stroke="#000000" points="1517.0902,-439.0568 1513.5901,-429.0568 1510.0902,-439.0569 1517.0902,-439.0568"/>
</g>
<!-- @bazel_tools//tools/cpp:grep&#45;includes.sh -->
<g id="node29" class="node">
<title>@bazel_tools//tools/cpp:grep-includes.sh</title>
<polygon fill="none" stroke="#000000" points="1269.3812,-350.4 1021.799,-350.4 1021.799,-314.4 1269.3812,-314.4 1269.3812,-350.4"/>
<text text-anchor="middle" x="1145.5901" y="-328.2" font-family="Times,serif" font-size="14.00" fill="#000000">@bazel_tools//tools/cpp:grep-includes.sh</text>
</g>
<!-- @bazel_tools//tools/cpp:grep&#45;includes&#45;&gt;@bazel_tools//tools/cpp:grep&#45;includes.sh -->
<g id="edge37" class="edge">
<title>@bazel_tools//tools/cpp:grep-includes-&gt;@bazel_tools//tools/cpp:grep-includes.sh</title>
<path fill="none" stroke="#000000" d="M1145.5901,-389.8509C1145.5901,-381.0989 1145.5901,-370.4314 1145.5901,-360.6752"/>
<polygon fill="#000000" stroke="#000000" points="1149.0902,-360.5801 1145.5901,-350.5801 1142.0902,-360.5801 1149.0902,-360.5801"/>
</g>
<!-- @local_config_cc//:toolchain -->
<g id="node18" class="node">
<title>@local_config_cc//:toolchain</title>
<polygon fill="none" stroke="#000000" points="914.6609,-277.4 732.5193,-277.4 732.5193,-241.4 914.6609,-241.4 914.6609,-277.4"/>
<text text-anchor="middle" x="823.5901" y="-255.2" font-family="Times,serif" font-size="14.00" fill="#000000">@local_config_cc//:toolchain</text>
</g>
<!-- @bazel_tools//tools/cpp:toolchain&#45;&gt;@local_config_cc//:toolchain -->
<g id="edge23" class="edge">
<title>@bazel_tools//tools/cpp:toolchain-&gt;@local_config_cc//:toolchain</title>
<path fill="none" stroke="#000000" d="M823.5901,-314.3551C823.5901,-306.2828 823.5901,-296.5764 823.5901,-287.5817"/>
<polygon fill="#000000" stroke="#000000" points="827.0902,-287.4903 823.5901,-277.4904 820.0902,-287.4904 827.0902,-287.4903"/>
</g>
<!-- @local_config_cc//:cc&#45;compiler&#45;k8 -->
<g id="node19" class="node">
<title>@local_config_cc//:cc-compiler-k8</title>
<polygon fill="none" stroke="#000000" points="801.5724,-204.4 585.6078,-204.4 585.6078,-168.4 801.5724,-168.4 801.5724,-204.4"/>
<text text-anchor="middle" x="693.5901" y="-182.2" font-family="Times,serif" font-size="14.00" fill="#000000">@local_config_cc//:cc-compiler-k8</text>
</g>
<!-- @local_config_cc//:toolchain&#45;&gt;@local_config_cc//:cc&#45;compiler&#45;k8 -->
<g id="edge24" class="edge">
<title>@local_config_cc//:toolchain-&gt;@local_config_cc//:cc-compiler-k8</title>
<path fill="none" stroke="#000000" d="M791.4553,-241.3551C774.2675,-231.7035 752.9193,-219.7156 734.5518,-209.4016"/>
<polygon fill="#000000" stroke="#000000" points="736.2389,-206.3349 725.8058,-204.4904 732.8115,-212.4384 736.2389,-206.3349"/>
</g>
<!-- @local_config_cc//:cc&#45;compiler&#45;armeabi&#45;v7a -->
<g id="node20" class="node">
<title>@local_config_cc//:cc-compiler-armeabi-v7a</title>
<polygon fill="none" stroke="#000000" points="1226.5331,-204.4 954.6471,-204.4 954.6471,-168.4 1226.5331,-168.4 1226.5331,-204.4"/>
<text text-anchor="middle" x="1090.5901" y="-182.2" font-family="Times,serif" font-size="14.00" fill="#000000">@local_config_cc//:cc-compiler-armeabi-v7a</text>
</g>
<!-- @local_config_cc//:toolchain&#45;&gt;@local_config_cc//:cc&#45;compiler&#45;armeabi&#45;v7a -->
<g id="edge25" class="edge">
<title>@local_config_cc//:toolchain-&gt;@local_config_cc//:cc-compiler-armeabi-v7a</title>
<path fill="none" stroke="#000000" d="M889.5901,-241.3551C927.4584,-231.0016 975.1598,-217.9596 1014.5889,-207.1794"/>
<polygon fill="#000000" stroke="#000000" points="1015.7011,-210.5038 1024.424,-204.4904 1013.8549,-203.7516 1015.7011,-210.5038"/>
</g>
<!-- @bazel_tools//tools/build_defs/cc/whitelists/parse_headers_and_layering_check:disabling_parse_headers_and_layering_check_allowed\n@local_config_cc//:empty\n@bazel_tools//tools/build_defs/cc/whitelists/starlark_hdrs_check:loose_header_check_allowed_in_toolchain -->
<g id="node21" class="node">
<title>@bazel_tools//tools/build_defs/cc/whitelists/parse_headers_and_layering_check:disabling_parse_headers_and_layering_check_allowed\n@local_config_cc//:empty\n@bazel_tools//tools/build_defs/cc/whitelists/starlark_hdrs_check:loose_header_check_allowed_in_toolchain</title>
<polygon fill="none" stroke="#000000" points="1480.5701,-131.6014 700.6101,-131.6014 700.6101,-72.7986 1480.5701,-72.7986 1480.5701,-131.6014"/>
<text text-anchor="middle" x="1090.5901" y="-114.8" font-family="Times,serif" font-size="14.00" fill="#000000">@bazel_tools//tools/build_defs/cc/whitelists/parse_headers_and_layering_check:disabling_parse_headers_and_layering_check_allowed</text>
<text text-anchor="middle" x="1090.5901" y="-98" font-family="Times,serif" font-size="14.00" fill="#000000">@local_config_cc//:empty</text>
<text text-anchor="middle" x="1090.5901" y="-81.2" font-family="Times,serif" font-size="14.00" fill="#000000">@bazel_tools//tools/build_defs/cc/whitelists/starlark_hdrs_check:loose_header_check_allowed_in_toolchain</text>
</g>
<!-- @local_config_cc//:cc&#45;compiler&#45;k8&#45;&gt;@bazel_tools//tools/build_defs/cc/whitelists/parse_headers_and_layering_check:disabling_parse_headers_and_layering_check_allowed\n@local_config_cc//:empty\n@bazel_tools//tools/build_defs/cc/whitelists/starlark_hdrs_check:loose_header_check_allowed_in_toolchain -->
<g id="edge31" class="edge">
<title>@local_config_cc//:cc-compiler-k8-&gt;@bazel_tools//tools/build_defs/cc/whitelists/parse_headers_and_layering_check:disabling_parse_headers_and_layering_check_allowed\n@local_config_cc//:empty\n@bazel_tools//tools/build_defs/cc/whitelists/starlark_hdrs_check:loose_header_check_allowed_in_toolchain</title>
<path fill="none" stroke="#000000" d="M778.7566,-168.337C826.5786,-158.1944 887.5987,-145.2526 942.9585,-133.5113"/>
<polygon fill="#000000" stroke="#000000" points="943.8087,-136.9089 952.8649,-131.4102 942.3563,-130.0612 943.8087,-136.9089"/>
</g>
<!-- @bazel_tools//tools/cpp:link_dynamic_library -->
<g id="node23" class="node">
<title>@bazel_tools//tools/cpp:link_dynamic_library</title>
<polygon fill="none" stroke="#000000" points="683.0543,-120.2 406.1259,-120.2 406.1259,-84.2 683.0543,-84.2 683.0543,-120.2"/>
<text text-anchor="middle" x="544.5901" y="-98" font-family="Times,serif" font-size="14.00" fill="#000000">@bazel_tools//tools/cpp:link_dynamic_library</text>
</g>
<!-- @local_config_cc//:cc&#45;compiler&#45;k8&#45;&gt;@bazel_tools//tools/cpp:link_dynamic_library -->
<g id="edge34" class="edge">
<title>@local_config_cc//:cc-compiler-k8-&gt;@bazel_tools//tools/cpp:link_dynamic_library</title>
<path fill="none" stroke="#000000" d="M661.6259,-168.337C639.3338,-155.7397 609.4006,-138.8245 585.3869,-125.2543"/>
<polygon fill="#000000" stroke="#000000" points="586.9295,-122.1059 576.5015,-120.2331 583.4856,-128.2001 586.9295,-122.1059"/>
</g>
<!-- @bazel_tools//tools/cpp:interface_library_builder -->
<g id="node24" class="node">
<title>@bazel_tools//tools/cpp:interface_library_builder</title>
<polygon fill="none" stroke="#000000" points="1794.1802,-120.2 1499,-120.2 1499,-84.2 1794.1802,-84.2 1794.1802,-120.2"/>
<text text-anchor="middle" x="1646.5901" y="-98" font-family="Times,serif" font-size="14.00" fill="#000000">@bazel_tools//tools/cpp:interface_library_builder</text>
</g>
<!-- @local_config_cc//:cc&#45;compiler&#45;k8&#45;&gt;@bazel_tools//tools/cpp:interface_library_builder -->
<g id="edge33" class="edge">
<title>@local_config_cc//:cc-compiler-k8-&gt;@bazel_tools//tools/cpp:interface_library_builder</title>
<path fill="none" stroke="#000000" d="M801.4985,-178.6114C846.1002,-175.4131 898.3344,-171.6947 945.5901,-168.4 1187.3396,-151.5449 1249.1718,-161.8292 1489.5901,-131.4 1509.1197,-128.9282 1529.8935,-125.5812 1549.7191,-122.0348"/>
<polygon fill="#000000" stroke="#000000" points="1550.4638,-125.4568 1559.6759,-120.2234 1549.2109,-118.5698 1550.4638,-125.4568"/>
</g>
<!-- @local_config_cc//:compiler_deps -->
<g id="node25" class="node">
<title>@local_config_cc//:compiler_deps</title>
<polygon fill="none" stroke="#000000" points="387.9811,-120.2 175.1991,-120.2 175.1991,-84.2 387.9811,-84.2 387.9811,-120.2"/>
<text text-anchor="middle" x="281.5901" y="-98" font-family="Times,serif" font-size="14.00" fill="#000000">@local_config_cc//:compiler_deps</text>
</g>
<!-- @local_config_cc//:cc&#45;compiler&#45;k8&#45;&gt;@local_config_cc//:compiler_deps -->
<g id="edge30" class="edge">
<title>@local_config_cc//:cc-compiler-k8-&gt;@local_config_cc//:compiler_deps</title>
<path fill="none" stroke="#000000" d="M587.4353,-168.3427C530.8954,-158.3052 460.2703,-145.0982 397.5901,-131.4 385.4235,-128.7411 372.5915,-125.7256 360.0736,-122.6664"/>
<polygon fill="#000000" stroke="#000000" points="360.668,-119.2081 350.1206,-120.2096 358.9904,-126.0041 360.668,-119.2081"/>
</g>
<!-- @local_config_cc//:local -->
<g id="node26" class="node">
<title>@local_config_cc//:local</title>
<polygon fill="none" stroke="#000000" points="157.2704,-120.2 -.0902,-120.2 -.0902,-84.2 157.2704,-84.2 157.2704,-120.2"/>
<text text-anchor="middle" x="78.5901" y="-98" font-family="Times,serif" font-size="14.00" fill="#000000">@local_config_cc//:local</text>
</g>
<!-- @local_config_cc//:cc&#45;compiler&#45;k8&#45;&gt;@local_config_cc//:local -->
<g id="edge32" class="edge">
<title>@local_config_cc//:cc-compiler-k8-&gt;@local_config_cc//:local</title>
<path fill="none" stroke="#000000" d="M585.7806,-181.9762C478.5044,-175.9812 309.6863,-162.2272 166.5901,-131.4 156.7945,-129.2897 146.5595,-126.4792 136.6779,-123.4337"/>
<polygon fill="#000000" stroke="#000000" points="137.5342,-120.0332 126.9435,-120.3272 135.406,-126.7018 137.5342,-120.0332"/>
</g>
<!-- @local_config_cc//:cc&#45;compiler&#45;armeabi&#45;v7a&#45;&gt;@bazel_tools//tools/build_defs/cc/whitelists/parse_headers_and_layering_check:disabling_parse_headers_and_layering_check_allowed\n@local_config_cc//:empty\n@bazel_tools//tools/build_defs/cc/whitelists/starlark_hdrs_check:loose_header_check_allowed_in_toolchain -->
<g id="edge26" class="edge">
<title>@local_config_cc//:cc-compiler-armeabi-v7a-&gt;@bazel_tools//tools/build_defs/cc/whitelists/parse_headers_and_layering_check:disabling_parse_headers_and_layering_check_allowed\n@local_config_cc//:empty\n@bazel_tools//tools/build_defs/cc/whitelists/starlark_hdrs_check:loose_header_check_allowed_in_toolchain</title>
<path fill="none" stroke="#000000" d="M1090.5901,-168.1299C1090.5901,-160.3987 1090.5901,-151.0689 1090.5901,-141.8922"/>
<polygon fill="#000000" stroke="#000000" points="1094.0902,-141.6897 1090.5901,-131.6897 1087.0902,-141.6898 1094.0902,-141.6897"/>
</g>
<!-- @local_config_cc//:stub_armeabi&#45;v7a -->
<g id="node22" class="node">
<title>@local_config_cc//:stub_armeabi-v7a</title>
<polygon fill="none" stroke="#000000" points="2042.8561,-120.2 1812.3241,-120.2 1812.3241,-84.2 2042.8561,-84.2 2042.8561,-120.2"/>
<text text-anchor="middle" x="1927.5901" y="-98" font-family="Times,serif" font-size="14.00" fill="#000000">@local_config_cc//:stub_armeabi-v7a</text>
</g>
<!-- @local_config_cc//:cc&#45;compiler&#45;armeabi&#45;v7a&#45;&gt;@local_config_cc//:stub_armeabi&#45;v7a -->
<g id="edge27" class="edge">
<title>@local_config_cc//:cc-compiler-armeabi-v7a-&gt;@local_config_cc//:stub_armeabi-v7a</title>
<path fill="none" stroke="#000000" d="M1226.3363,-182.1573C1370.3201,-176.2064 1604.0806,-162.3959 1803.5901,-131.4 1818.5595,-129.0743 1834.3956,-125.9028 1849.5628,-122.5045"/>
<polygon fill="#000000" stroke="#000000" points="1850.4525,-125.8914 1859.4175,-120.2452 1848.8882,-119.0684 1850.4525,-125.8914"/>
</g>
<!-- @local_config_cc//:cc&#45;compiler&#45;armeabi&#45;v7a&#45;&gt;@bazel_tools//tools/cpp:link_dynamic_library -->
<g id="edge28" class="edge">
<title>@local_config_cc//:cc-compiler-armeabi-v7a-&gt;@bazel_tools//tools/cpp:link_dynamic_library</title>
<path fill="none" stroke="#000000" d="M954.5501,-169.6731C877.2706,-159.6644 778.8225,-146.063 691.5901,-131.4 675.1811,-128.6418 657.7971,-125.4395 640.9492,-122.1871"/>
<polygon fill="#000000" stroke="#000000" points="641.5876,-118.7457 631.1028,-120.2693 640.2493,-125.6166 641.5876,-118.7457"/>
</g>
<!-- @local_config_cc//:cc&#45;compiler&#45;armeabi&#45;v7a&#45;&gt;@bazel_tools//tools/cpp:interface_library_builder -->
<g id="edge29" class="edge">
<title>@local_config_cc//:cc-compiler-armeabi-v7a-&gt;@bazel_tools//tools/cpp:interface_library_builder</title>
<path fill="none" stroke="#000000" d="M1226.5627,-169.2644C1303.8208,-159.1258 1402.2698,-145.5306 1489.5901,-131.4 1507.14,-128.56 1525.7487,-125.3106 1543.7846,-122.0352"/>
<polygon fill="#000000" stroke="#000000" points="1544.5282,-125.4573 1553.7353,-120.2152 1543.2687,-118.5715 1544.5282,-125.4573"/>
</g>
<!-- @bazel_tools//tools/cpp:link_dynamic_library.sh -->
<g id="node27" class="node">
<title>@bazel_tools//tools/cpp:link_dynamic_library.sh</title>
<polygon fill="none" stroke="#000000" points="718.9989,-36 426.1813,-36 426.1813,0 718.9989,0 718.9989,-36"/>
<text text-anchor="middle" x="572.5901" y="-13.8" font-family="Times,serif" font-size="14.00" fill="#000000">@bazel_tools//tools/cpp:link_dynamic_library.sh</text>
</g>
<!-- @bazel_tools//tools/cpp:link_dynamic_library&#45;&gt;@bazel_tools//tools/cpp:link_dynamic_library.sh -->
<g id="edge35" class="edge">
<title>@bazel_tools//tools/cpp:link_dynamic_library-&gt;@bazel_tools//tools/cpp:link_dynamic_library.sh</title>
<path fill="none" stroke="#000000" d="M550.6657,-83.9299C554.3715,-72.7858 559.182,-58.3201 563.3524,-45.7792"/>
<polygon fill="#000000" stroke="#000000" points="566.692,-46.828 566.5264,-36.2345 560.0496,-44.6191 566.692,-46.828"/>
</g>
<!-- @bazel_tools//tools/cpp:build_interface_so -->
<g id="node28" class="node">
<title>@bazel_tools//tools/cpp:build_interface_so</title>
<polygon fill="none" stroke="#000000" points="1776.4323,-36 1516.7479,-36 1516.7479,0 1776.4323,0 1776.4323,-36"/>
<text text-anchor="middle" x="1646.5901" y="-13.8" font-family="Times,serif" font-size="14.00" fill="#000000">@bazel_tools//tools/cpp:build_interface_so</text>
</g>
<!-- @bazel_tools//tools/cpp:interface_library_builder&#45;&gt;@bazel_tools//tools/cpp:build_interface_so -->
<g id="edge36" class="edge">
<title>@bazel_tools//tools/cpp:interface_library_builder-&gt;@bazel_tools//tools/cpp:build_interface_so</title>
<path fill="none" stroke="#000000" d="M1646.5901,-83.9299C1646.5901,-73.0065 1646.5901,-58.8917 1646.5901,-46.5264"/>
<polygon fill="#000000" stroke="#000000" points="1650.0902,-46.2345 1646.5901,-36.2345 1643.0902,-46.2345 1650.0902,-46.2345"/>
</g>
<!-- @local_config_cc//:builtin_include_directory_paths -->
<g id="node30" class="node">
<title>@local_config_cc//:builtin_include_directory_paths</title>
<polygon fill="none" stroke="#000000" points="407.9142,-36 99.266,-36 99.266,0 407.9142,0 407.9142,-36"/>
<text text-anchor="middle" x="253.5901" y="-13.8" font-family="Times,serif" font-size="14.00" fill="#000000">@local_config_cc//:builtin_include_directory_paths</text>
</g>
<!-- @local_config_cc//:compiler_deps&#45;&gt;@local_config_cc//:builtin_include_directory_paths -->
<g id="edge38" class="edge">
<title>@local_config_cc//:compiler_deps-&gt;@local_config_cc//:builtin_include_directory_paths</title>
<path fill="none" stroke="#000000" d="M275.5145,-83.9299C271.8087,-72.7858 266.9982,-58.3201 262.8278,-45.7792"/>
<polygon fill="#000000" stroke="#000000" points="266.1306,-44.6191 259.6538,-36.2345 259.4882,-46.828 266.1306,-44.6191"/>
</g>
</g>
</svg>